# xmcd
# Copyright (C) 1995-1998 Ti Kan
#
# Track frame offsets:
#       150
#       17672
#       32512
#       48225
#       64922
#       78000
#       97575
#       114637
#       127312
#       142500
#       161025
#       177900
#
# Disc length: 2602 seconds
#
# Revision: 0
# Processed by: cddbd v1.5.1PL0 Copyright (c) Steve Scherf et al.
# Submitted via: CD-Transfer v1.0
#
DISCID=8d0a280c
DTITLE=Heimweh - Fredy Bütikofer, Andy Steiner, Charly Preissel
DYEAR=04
DGENRE=
TTITLE0=Es Rätsel
TTITLE1=Hey Na Na Na
TTITLE2=Einsamkeit
TTITLE3=Hallo Baby
TTITLE4=Stirnimaa
TTITLE5=Weisch No
TTITLE6=Zoge
TTITLE7=Küsse
TTITLE8=Jahrestag
TTITLE9=S'grosi
TTITLE10=Ob's So Chunt Oder So
TTITLE11=Comment Allez Vous
EXTD=
EXTT0=
EXTT1=
EXTT2=
EXTT3=
EXTT4=
EXTT5=
EXTT6=
EXTT7=
EXTT8=
EXTT9=
EXTT10=
EXTT11=
PLAYORDER=
